<svg width="250" height="72" viewBox="0 0 250 72" fill="none" xmlns="http://www.w3.org/2000/svg">
<path fill-rule="evenodd" clip-rule="evenodd" d="M21.0094 17.3147L25.7365 16.433L24.1279 22.688L22.8688 22.9613C21.9309 23.1299 20.2696 25.0616 20.4382 25.9994L21.0882 28.7677L15.8567 30.9047L14.9741 25.996C14.2434 21.9322 16.9455 18.0454 21.0094 17.3147Z" fill="#FB8500"/>
<path fill-rule="evenodd" clip-rule="evenodd" d="M19.0768 10.0658L27.7325 8.67114L26.2005 14.6281L20.0945 15.726C15.4294 16.5647 12.3276 21.0265 13.1664 25.6915L14.2236 31.5715L8.78025 33.7951L7.50619 26.7092C6.10535 18.9181 11.2857 11.4666 19.0768 10.0658Z" fill="#FB8500"/>
<path fill-rule="evenodd" clip-rule="evenodd" d="M16.8253 2.92023L29.6871 1.07104L28.179 6.9355L17.843 8.58043C9.98794 9.99278 4.56349 18.0801 5.97584 25.9352L7.48427 34.3246L2.0409 36.5483L0.315635 26.9529C-1.65878 15.9718 5.84418 4.89464 16.8253 2.92023Z" fill="#FB8500"/>
<path d="M2.14722 37.9647L22.1121 29.7893C22.3365 29.7011 24.6132 36.2078 24.3231 36.5239C19.3912 41.8976 19.6027 43.8277 20.1623 47.3612C20.7218 50.8947 26.8068 60.9653 27.3054 63.4275C27.8012 65.8759 25.72 67.1693 25.1368 67.3984C24.0177 67.838 21.7741 68.0322 20.6632 66.0369C19.4317 63.8246 18.5033 54.9849 15.59 48.887C12.6766 42.7892 4.62819 44.497 4.20048 43.6405C4.00627 43.2516 2.13546 38.1984 2.14722 37.9647Z" fill="#FB8500"/>
<path d="M234.184 49.8607L237.634 30.0818H242.991L242.753 31.4946H242.955C243.578 30.883 244.367 30.4182 245.321 30.1001C246.288 29.7699 247.321 29.6047 248.422 29.6047C249.009 29.6047 249.535 29.6475 250 29.7332L249.083 35.0357H246.239C245.529 35.0357 244.875 35.1886 244.276 35.4944C243.676 35.7879 243.175 36.2099 242.771 36.7604C242.367 37.3108 242.104 37.9469 241.982 38.6685L240.019 49.8607H234.184Z" fill="#332D2D"/>
<path d="M221.863 50.4479C220.029 50.4479 218.371 50.0687 216.891 49.3104C215.423 48.5398 214.267 47.445 213.423 46.0261C212.579 44.595 212.157 42.9315 212.157 41.0355C212.157 38.8827 212.647 36.9256 213.625 35.1642C214.604 33.3906 215.961 31.9901 217.698 30.9626C219.448 29.9351 221.411 29.4214 223.588 29.4214C225.313 29.4214 226.86 29.7822 228.23 30.5039C229.6 31.2134 230.676 32.2714 231.459 33.6781C232.254 35.0725 232.652 36.7544 232.652 38.7237C232.652 39.213 232.621 39.7328 232.56 40.2833C232.511 40.8215 232.432 41.274 232.322 41.641L218.065 41.6227C218.053 41.6716 218.047 41.7511 218.047 41.8612C218.047 42.5828 218.23 43.2311 218.597 43.806C218.977 44.3809 219.496 44.8335 220.157 45.1638C220.817 45.4818 221.551 45.6408 222.359 45.6408C223.435 45.6408 224.389 45.4145 225.221 44.9619C226.065 44.4971 226.713 43.8978 227.166 43.1639L231.679 45.2555C231.068 46.3197 230.242 47.2432 229.202 48.026C228.163 48.8089 227.007 49.4082 225.735 49.8241C224.463 50.24 223.172 50.4479 221.863 50.4479ZM226.946 38.0265C226.958 37.9776 226.964 37.8919 226.964 37.7696C226.964 37.0479 226.799 36.4058 226.469 35.8431C226.151 35.2804 225.704 34.8462 225.129 34.5404C224.554 34.2224 223.9 34.0634 223.166 34.0634C222.42 34.0634 221.704 34.2285 221.019 34.5588C220.347 34.889 219.772 35.3538 219.295 35.9532C218.83 36.5526 218.512 37.2437 218.341 38.0265H226.946Z" fill="#332D2D"/>
<path d="M196.314 50.4479C194.552 50.4479 193.017 50.032 191.708 49.2002C190.4 48.3562 189.403 47.2248 188.718 45.8059C188.033 44.387 187.69 42.8213 187.69 41.1088C187.69 38.956 188.161 36.9867 189.103 35.2009C190.057 33.415 191.39 32.0083 193.103 30.9809C194.828 29.9412 196.803 29.4213 199.029 29.4213C200.191 29.4213 201.225 29.617 202.13 30.0084C203.047 30.3876 203.83 30.9319 204.479 31.6414L206.203 21.9354H212.038L207.121 49.8607H201.745L202.002 48.3195L201.8 48.3012C201.09 49.0595 200.295 49.6039 199.415 49.9341C198.546 50.2766 197.512 50.4479 196.314 50.4479ZM197.837 45.1453C198.889 45.1453 199.824 44.8762 200.644 44.338C201.463 43.7876 202.099 43.0659 202.552 42.173C203.005 41.2801 203.231 40.3199 203.231 39.2924C203.231 38.4362 203.047 37.6595 202.68 36.9622C202.326 36.265 201.812 35.7207 201.139 35.3293C200.479 34.9256 199.708 34.7238 198.827 34.7238C197.751 34.7238 196.803 34.9929 195.983 35.5311C195.176 36.0693 194.552 36.7849 194.112 37.6778C193.684 38.5707 193.464 39.5187 193.452 40.5217C193.452 41.3902 193.629 42.1791 193.984 42.8886C194.351 43.5858 194.864 44.1362 195.525 44.5399C196.198 44.9435 196.968 45.1453 197.837 45.1453Z" fill="#332D2D"/>
<path d="M182.653 49.8607H176.819L181.718 21.9537H187.571L182.653 49.8607Z" fill="#332D2D"/>
<path d="M173.543 28.0268C172.504 28.0268 171.654 27.7333 170.993 27.1461C170.345 26.5468 170.021 25.7517 170.021 24.7609C170.021 23.7579 170.345 22.9629 170.993 22.3757C171.654 21.7764 172.504 21.4767 173.543 21.4767C174.583 21.4767 175.427 21.7764 176.075 22.3757C176.724 22.9629 177.048 23.7579 177.048 24.7609C177.048 25.7517 176.724 26.5468 176.075 27.1461C175.427 27.7333 174.583 28.0268 173.543 28.0268ZM172.057 49.8607H166.223L169.727 30.0084H175.562L172.057 49.8607Z" fill="#332D2D"/>
<path d="M143.444 49.8607L148.361 21.9354H154.232L152.581 31.2194C153.18 30.669 153.877 30.2347 154.672 29.9167C155.48 29.5987 156.336 29.4397 157.241 29.4397C158.635 29.4397 159.853 29.7332 160.892 30.3204C161.932 30.9075 162.727 31.727 163.277 32.779C163.84 33.8309 164.121 35.0357 164.121 36.3935C164.121 37.0418 164.054 37.739 163.92 38.4851L161.92 49.8607H156.067L158.177 37.8062C158.213 37.6717 158.232 37.4699 158.232 37.2008C158.232 36.369 157.969 35.6962 157.443 35.1825C156.917 34.6688 156.232 34.4119 155.388 34.4119C154.74 34.4119 154.128 34.577 153.553 34.9073C152.978 35.2376 152.495 35.6901 152.104 36.265C151.724 36.8277 151.48 37.4576 151.37 38.1548L149.296 49.8607H143.444Z" fill="#332D2D"/>
<path d="M131.508 50.4479C129.612 50.4479 127.924 50.0504 126.444 49.2553C124.976 48.4603 123.832 47.3533 123.013 45.9344C122.193 44.5032 121.784 42.8703 121.784 41.0355C121.784 38.8705 122.285 36.9012 123.288 35.1275C124.303 33.3539 125.692 31.9595 127.453 30.9443C129.227 29.929 131.196 29.4214 133.361 29.4214C134.939 29.4214 136.388 29.7088 137.709 30.2837C139.031 30.8464 140.131 31.6476 141.012 32.6873C141.893 33.727 142.486 34.9318 142.792 36.3018L137.159 38.0999C136.902 37.0479 136.388 36.2406 135.618 35.678C134.847 35.1031 133.936 34.8156 132.884 34.8156C131.857 34.8156 130.939 35.0786 130.132 35.6046C129.325 36.1306 128.695 36.8339 128.242 37.7146C127.802 38.583 127.582 39.5188 127.582 40.5218C127.582 41.4269 127.771 42.222 128.15 42.907C128.542 43.592 129.068 44.1241 129.728 44.5032C130.401 44.8702 131.153 45.0537 131.985 45.0537C133.037 45.0537 133.997 44.7724 134.866 44.2097C135.734 43.647 136.388 42.8336 136.829 41.7694L142.168 43.5675C141.618 44.9375 140.81 46.1423 139.746 47.182C138.682 48.2217 137.434 49.029 136.003 49.6039C134.584 50.1666 133.086 50.4479 131.508 50.4479Z" fill="#332D2D"/>
<path d="M111.334 50.3928C109.756 50.3928 108.38 50.142 107.206 49.6405C106.032 49.1268 105.127 48.3806 104.491 47.4021C103.855 46.4235 103.536 45.2432 103.536 43.861H108.711C108.711 44.2402 108.839 44.5826 109.096 44.8884C109.353 45.1942 109.683 45.4389 110.087 45.6224C110.49 45.7936 110.9 45.8792 111.316 45.8792C112.001 45.8792 112.533 45.7508 112.912 45.4939C113.291 45.2248 113.481 44.8762 113.481 44.4481C113.481 44.0077 113.353 43.653 113.096 43.3839C112.839 43.1148 112.35 42.7662 111.628 42.3381L109.334 41.0538C108.062 40.3198 107.157 39.537 106.619 38.7052C106.093 37.8735 105.83 36.8154 105.83 35.5311C105.83 34.3446 106.142 33.2927 106.766 32.3753C107.39 31.4579 108.27 30.7484 109.408 30.2469C110.558 29.7332 111.897 29.4763 113.426 29.4763C114.955 29.4763 116.27 29.7271 117.371 30.2286C118.484 30.7178 119.334 31.4212 119.921 32.3386C120.508 33.2437 120.802 34.3079 120.802 35.5311H115.628C115.628 35.0296 115.408 34.6259 114.967 34.3201C114.527 34.0021 114.019 33.8431 113.444 33.8431C112.869 33.8431 112.417 33.9593 112.087 34.1917C111.756 34.4241 111.591 34.7238 111.591 35.0907C111.591 35.4332 111.683 35.7268 111.866 35.9714C112.05 36.2161 112.398 36.4852 112.912 36.7787L115.169 38.0631C116.135 38.6257 116.906 39.1762 117.481 39.7144C118.068 40.2403 118.508 40.8458 118.802 41.5308C119.095 42.2158 119.242 43.0414 119.242 44.0077C119.242 45.3166 118.936 46.4541 118.325 47.4204C117.713 48.3745 116.814 49.1084 115.628 49.6222C114.441 50.1359 113.01 50.3928 111.334 50.3928Z" fill="#332D2D"/>
<path d="M87.0322 49.8608H79.7115L88.6652 38.9623L84.1516 30.0085H90.7752L93.2154 35.2927L97.3253 30.0085H104.573L96.9033 39.0907L102.077 49.8608H95.564L92.3714 43.0171L87.0322 49.8608Z" fill="#332D2D"/>
<path d="M70.418 50.4479C68.5832 50.4479 66.9258 50.0687 65.4458 49.3104C63.9779 48.5398 62.822 47.445 61.978 46.0261C61.134 44.595 60.712 42.9315 60.712 41.0355C60.712 38.8827 61.2013 36.9256 62.1799 35.1642C63.1584 33.3906 64.5161 31.9901 66.2531 30.9626C68.0022 29.9351 69.9654 29.4214 72.1427 29.4214C73.8674 29.4214 75.4147 29.7822 76.7847 30.5039C78.1546 31.2134 79.231 32.2714 80.0139 33.6781C80.809 35.0725 81.2065 36.7544 81.2065 38.7237C81.2065 39.213 81.1759 39.7328 81.1148 40.2833C81.0658 40.8215 80.9863 41.274 80.8762 41.641L66.62 41.6227C66.6078 41.6716 66.6017 41.7511 66.6017 41.8612C66.6017 42.5828 66.7851 43.2311 67.1521 43.806C67.5313 44.3809 68.0511 44.8335 68.7117 45.1638C69.3722 45.4818 70.1061 45.6408 70.9134 45.6408C71.9898 45.6408 72.9439 45.4145 73.7756 44.9619C74.6196 44.4971 75.2679 43.8978 75.7205 43.1639L80.2341 45.2555C79.6225 46.3197 78.7968 47.2432 77.7571 48.026C76.7174 48.8089 75.5615 49.4082 74.2894 49.8241C73.0173 50.24 71.7268 50.4479 70.418 50.4479ZM75.5003 38.0265C75.5126 37.9776 75.5187 37.8919 75.5187 37.7696C75.5187 37.0479 75.3535 36.4058 75.0233 35.8431C74.7053 35.2804 74.2588 34.8462 73.6839 34.5404C73.109 34.2224 72.4546 34.0634 71.7207 34.0634C70.9746 34.0634 70.259 34.2285 69.574 34.5588C68.9013 34.889 68.3264 35.3538 67.8493 35.9532C67.3845 36.5526 67.0665 37.2437 66.8952 38.0265H75.5003Z" fill="#332D2D"/>
<path d="M55.6752 49.8607H49.8406L54.7394 21.9537H60.5924L55.6752 49.8607Z" fill="#332D2D"/>
<path d="M36.9876 49.8608H30.7677L35.2812 24.0638H50.9319L49.9595 29.5498H40.5287L39.7581 33.9533H48.6751L47.721 39.4576H38.804L36.9876 49.8608Z" fill="#332D2D"/>
<path d="M35.6289 19.1121L38.8559 0.668457H45.6378C47.2294 0.668457 48.633 1.01827 49.8486 1.71788C51.0729 2.4175 52.0174 3.38822 52.6821 4.63003C53.3554 5.87185 53.6921 7.2842 53.6921 8.86708C53.6921 10.8697 53.2636 12.6494 52.4066 14.206C51.5495 15.7539 50.334 16.9608 48.7598 17.8265C47.1944 18.6836 45.3842 19.1121 43.3291 19.1121H35.6289ZM43.3684 16.3049C44.7589 16.3049 45.9876 15.9901 47.0545 15.3604C48.1302 14.7307 48.961 13.865 49.5469 12.7631C50.1328 11.6524 50.4258 10.4062 50.4258 9.0245C50.4258 7.97507 50.2115 7.03059 49.783 6.19105C49.3545 5.34277 48.7423 4.67376 47.9465 4.18403C47.1595 3.6943 46.2412 3.44943 45.1918 3.44943H41.5188L39.2625 16.3049H43.3684Z" fill="#FB8500"/>
<path d="M62.6071 19.5808C61.3128 19.5808 60.1541 19.3054 59.1309 18.7544C58.1077 18.2035 57.3031 17.4251 56.7172 16.4194C56.14 15.4137 55.8514 14.2463 55.8514 12.917C55.8514 11.4041 56.1881 10.0179 56.8615 8.75864C57.5436 7.49058 58.4881 6.48926 59.695 5.75466C60.9018 5.01132 62.2748 4.63965 63.8139 4.63965C65.0383 4.63965 66.1271 4.89763 67.0803 5.4136C68.0335 5.92082 68.7768 6.66854 69.3103 7.65674C69.8525 8.64495 70.1236 9.82993 70.1236 11.2117C70.1236 11.9288 70.0624 12.5278 69.94 13.0088L58.8685 12.9957C58.8598 13.0657 58.8554 13.1487 58.8554 13.2449C58.8554 13.9883 59.0259 14.6529 59.367 15.2388C59.7081 15.8248 60.1803 16.2795 60.7837 16.6031C61.3959 16.9267 62.0868 17.0884 62.8563 17.0884C63.7833 17.0884 64.6185 16.8698 65.3618 16.4326C66.1139 15.9953 66.7217 15.4006 67.1852 14.6485L69.4415 15.8816C69.0042 16.6424 68.427 17.3027 67.7099 17.8624C67.0016 18.4133 66.2058 18.8375 65.3225 19.1348C64.4392 19.4322 63.5341 19.5808 62.6071 19.5808ZM67.1983 10.9493L67.2115 10.7919C67.2115 10.066 67.0628 9.42327 66.7655 8.86358C66.4681 8.29514 66.044 7.85788 65.493 7.5518C64.9421 7.23697 64.3081 7.07956 63.5909 7.07956C62.8563 7.07956 62.1698 7.24135 61.5314 7.56492C60.9018 7.88849 60.3683 8.34324 59.9311 8.92917C59.4938 9.5151 59.2009 10.1885 59.0522 10.9493H67.1983Z" fill="#FB8500"/>
<circle cx="23.7041" cy="64.0741" r="1.87138" fill="white"/>
</svg>
